<?xml version="1.0" encoding="utf-8"?>
<!-- Generator: Adobe Illustrator 26.0.3, SVG Export Plug-In . SVG Version: 6.00 Build 0)  -->
<svg version="1.0" id="katman_1" xmlns="http://www.w3.org/2000/svg" xmlns:xlink="http://www.w3.org/1999/xlink" x="0px" y="0px"
	 viewBox="0 0 600 450" style="enable-background:new 0 0 600 450;" xml:space="preserve">
<style type="text/css">
	.st0{fill:url(#SVGID_1_);}
	.st1{display:none;fill:url(#SVGID_00000049914507616700549210000002978300538926228885_);}
	.st2{fill:url(#SVGID_00000060030424137418226090000016044088827858609323_);}
	.st3{fill:url(#SVGID_00000126316117232502321150000014870711482583809702_);}
	.st4{fill:url(#SVGID_00000058563168662469061170000004863864972765496485_);}
	.st5{fill:url(#SVGID_00000153685878792983559510000015767587750469236107_);}
	.st6{fill:url(#SVGID_00000096770196456912241780000009184497787338879911_);}
	.st7{fill:url(#SVGID_00000072272498549712698570000002474120893942765960_);}
	.st8{fill:url(#SVGID_00000175309101368931201600000007189588332993937086_);}
</style>
<g>
	
		<linearGradient id="SVGID_1_" gradientUnits="userSpaceOnUse" x1="292.4771" y1="168.26" x2="258.9224" y2="168.26" gradientTransform="matrix(1 0 0 -1 -120.9449 379.3622)">
		<stop  offset="0" style="stop-color:#246FB6"/>
		<stop  offset="1" style="stop-color:#3779BE"/>
	</linearGradient>
	<path class="st0" d="M138,326.9L138,326.9V95.3l33.4,34.5v163.7C171.4,311.8,156.4,326.9,138,326.9z"/>
	
		<linearGradient id="SVGID_00000005257403790422647710000007931712351849938087_" gradientUnits="userSpaceOnUse" x1="421.3378" y1="310.9498" x2="421.3378" y2="-2.7809" gradientTransform="matrix(1 0 0 -1 -120.9449 379.3622)">
		<stop  offset="0" style="stop-color:#246FB6"/>
		<stop  offset="1" style="stop-color:#3779BE"/>
	</linearGradient>
	<path style="display:none;fill:url(#SVGID_00000005257403790422647710000007931712351849938087_);" d="M394.9,115.3l-94.8,95.3
		l-60.8-61.4v199.2c0,18.3-15.1,33.4-33.4,33.4l0,0V68.4l94.8,94.8l94.2-94.8V115.3z"/>
	
		<linearGradient id="SVGID_00000009548311536434185990000003614650845692350127_" gradientUnits="userSpaceOnUse" x1="343.5315" y1="-2.7545" x2="343.5315" y2="310.9762" gradientTransform="matrix(1 0 0 -1 -120.9449 379.3622)">
		<stop  offset="0" style="stop-color:#246FB6"/>
		<stop  offset="1" style="stop-color:#3779BE"/>
	</linearGradient>
	<path style="fill:url(#SVGID_00000009548311536434185990000003614650845692350127_);" d="M239.3,149.2v199.2
		c0,18.3-15.1,33.4-33.4,33.4l0,0V68.4L239.3,149.2z"/>
	
		<linearGradient id="SVGID_00000112632693809275616660000002874088734879925122_" gradientUnits="userSpaceOnUse" x1="421.1849" y1="239.8741" x2="515.9525" y2="239.8741" gradientTransform="matrix(1 0 0 -1 -120.9449 379.3622)">
		<stop  offset="0" style="stop-color:#246FB6"/>
		<stop  offset="1" style="stop-color:#3779BE"/>
	</linearGradient>
	<polygon style="fill:url(#SVGID_00000112632693809275616660000002874088734879925122_);" points="394.9,115.3 300.1,210.6 
		300.1,163.2 394.9,68.4 	"/>
	
		<linearGradient id="SVGID_00000101084074632037596950000013442163030810240408_" gradientUnits="userSpaceOnUse" x1="326.4141" y1="239.8741" x2="421.1817" y2="239.8741" gradientTransform="matrix(1 0 0 -1 -120.9449 379.3622)">
		<stop  offset="0" style="stop-color:#246FB6"/>
		<stop  offset="1" style="stop-color:#3779BE"/>
	</linearGradient>
	<polygon style="fill:url(#SVGID_00000101084074632037596950000013442163030810240408_);" points="300.1,210.6 239.3,149.2 
		205.4,68.4 300.1,163.2 	"/>
	
		<linearGradient id="SVGID_00000151517525603759609410000006008978648542210464_" gradientUnits="userSpaceOnUse" x1="499.596" y1="93.4256" x2="498.882" y2="13.4353" gradientTransform="matrix(1 0 0 -1 -120.9449 379.3622)">
		<stop  offset="0" style="stop-color:#246FB6"/>
		<stop  offset="8.969296e-02" style="stop-color:#2A71B8"/>
		<stop  offset="0.3244" style="stop-color:#3075BB"/>
		<stop  offset="0.5979" style="stop-color:#3779BD"/>
		<stop  offset="1" style="stop-color:#3779BE"/>
	</linearGradient>
	<path style="fill:url(#SVGID_00000151517525603759609410000006008978648542210464_);" d="M394.9,382.3L394.9,382.3
		c-18.3,0-33.4-15.1-33.4-33.4v-58.2l33.4-33.9V382.3z"/>
	
		<linearGradient id="SVGID_00000099636949046082708940000017639546268503869099_" gradientUnits="userSpaceOnUse" x1="456.327" y1="68.3669" x2="608.7487" y2="220.7887" gradientTransform="matrix(1 0 0 -1 -120.9449 379.3622)">
		<stop  offset="0" style="stop-color:#246FB6"/>
		<stop  offset="0.9297" style="stop-color:#3779BE"/>
	</linearGradient>
	<path style="fill:url(#SVGID_00000099636949046082708940000017639546268503869099_);" d="M462.2,326.9L462.2,326.9
		c-18.3,0-33.4-15.1-33.4-33.4V176.6L299.6,304.8l-26.9-26.9V231l26.9,26.4L462.2,95.9V326.9z"/>
	
		<linearGradient id="SVGID_00000033360847403434415460000015916055363726600620_" gradientUnits="userSpaceOnUse" x1="533.4487" y1="236.4865" x2="615.6078" y2="94.1827" gradientTransform="matrix(1 0 0 -1 -120.9449 379.3622)">
		<stop  offset="0" style="stop-color:#246FB6"/>
		<stop  offset="1" style="stop-color:#3779BE"/>
	</linearGradient>
	<path style="fill:url(#SVGID_00000033360847403434415460000015916055363726600620_);" d="M428.3,293.5c0,18.3,15.1,33.4,33.4,33.4
		v-231l-33.4,80.8V293.5z"/>
	
		<linearGradient id="SVGID_00000162319908657389784130000005814663182012803724_" gradientUnits="userSpaceOnUse" x1="395.8017" y1="111.4533" x2="417.7216" y2="111.4533" gradientTransform="matrix(1 0 0 -1 -120.9449 379.3622)">
		<stop  offset="0" style="stop-color:#246FB6"/>
		<stop  offset="0.9297" style="stop-color:#3779BE"/>
	</linearGradient>
	<polygon style="fill:url(#SVGID_00000162319908657389784130000005814663182012803724_);" points="299.6,304.8 272.7,277.9 
		272.7,231 299.6,257.4 	"/>
</g>
</svg>
